<svg width="130" height="130" viewBox="0 0 130 130" fill="none" xmlns="http://www.w3.org/2000/svg">
<circle opacity="0.2" cx="65" cy="65" r="65" fill="#CFD0F6"/>
<g clip-path="url(#clip0_1142_4877)">
<path d="M85.2919 43.2348H77.586C76.3509 43.2348 75.3574 42.2489 75.3574 41.0231V38.2118C75.3574 36.986 76.3509 36 77.586 36H85.2919C86.527 36 87.5204 36.986 87.5204 38.2118V41.0231C87.5204 42.2489 86.527 43.2348 85.2919 43.2348Z" fill="#1F3650"/>
<path d="M100.207 92H29.8065C26.0475 92 23 88.9755 23 85.2448V44.9136C23 41.183 26.0475 38.1584 29.8065 38.1584H100.207C103.966 38.1584 107.013 41.183 107.013 44.9136V85.2448C107 88.9755 103.953 92 100.207 92Z" fill="#E3EDF6"/>
<path d="M99.9114 38.1584H90.6348C94.5549 38.1584 97.7366 41.3162 97.7366 45.2067V84.9517C97.7366 88.8422 94.5549 92 90.6348 92H99.9114C103.832 92 107.013 88.8422 107.013 84.9517V45.2067C107 41.3162 103.832 38.1584 99.9114 38.1584Z" fill="#CBDDEF"/>
<path d="M107 49.8967H23V83.5793H107V49.8967Z" fill="#7F81E8"/>
<path d="M107 49.8967H97.5215V83.5793H107V49.8967Z" fill="#5F62E2"/>
<path d="M61.328 89.7216C74.1178 89.7216 84.486 79.4315 84.486 66.738C84.486 54.0446 74.1178 43.7545 61.328 43.7545C48.5381 43.7545 38.1699 54.0446 38.1699 66.738C38.1699 79.4315 48.5381 89.7216 61.328 89.7216Z" fill="#EEF4FA"/>
<path d="M80.6473 66.738C80.6473 77.3171 72.0016 85.8977 61.3422 85.8977C55.5158 85.8977 50.2935 83.3395 46.7627 79.2891C43.8226 75.9315 42.0371 71.5346 42.0371 66.7247C42.0371 56.1456 50.6828 47.5651 61.3422 47.5651C66.7793 47.5651 71.6794 49.7901 75.1968 53.3742C78.553 56.8384 80.6473 61.5551 80.6473 66.738Z" fill="#1F3650"/>
<path d="M73.3238 78.6499C79.9506 72.0731 79.9506 61.4098 73.3238 54.833C66.697 48.2561 55.9528 48.2561 49.326 54.833C42.6992 61.4098 42.6992 72.0731 49.326 78.6499C55.9528 85.2268 66.697 85.2268 73.3238 78.6499Z" fill="#344860"/>
<path d="M68.9671 74.3256C73.1875 70.137 73.1875 63.3459 68.9671 59.1573C64.7467 54.9687 57.9041 54.9687 53.6837 59.1573C49.4633 63.3459 49.4633 70.137 53.6837 74.3256C57.9041 78.5142 64.7467 78.5142 68.9671 74.3256Z" fill="#1F3650"/>
<path opacity="0.7" d="M56.554 62.3699C59.2971 60.3339 60.3689 57.1547 58.9479 55.269C57.527 53.3834 54.1513 53.5053 51.4082 55.5413C48.6651 57.5774 47.5933 60.7565 49.0143 62.6422C50.4352 64.5279 53.8109 64.406 56.554 62.3699Z" fill="#93BBDC"/>
<path opacity="0.7" d="M61.2662 66.2451C62.4062 65.3989 62.7364 63.9248 62.0037 62.9525C61.2711 61.9802 59.753 61.8779 58.613 62.7241C57.473 63.5702 57.1428 65.0444 57.8755 66.0167C58.6081 66.989 60.1262 67.0912 61.2662 66.2451Z" fill="#93BBDC"/>
<path d="M32.062 46.6191C33.3373 46.6191 34.3711 45.5036 34.3711 44.1275C34.3711 42.7515 33.3373 41.636 32.062 41.636C30.7867 41.636 29.7529 42.7515 29.7529 44.1275C29.7529 45.5036 30.7867 46.6191 32.062 46.6191Z" fill="#F95562"/>
</g>
<defs>
<clipPath id="clip0_1142_4877">
<rect width="84" height="56" fill="white" transform="translate(23 36)"/>
</clipPath>
</defs>
</svg>
