<svg width="230" height="217" viewBox="0 0 230 217" fill="none" xmlns="http://www.w3.org/2000/svg">
<path d="M166.965 32.7407C213.11 45.1051 219.727 86.9717 207.363 133.116C194.998 179.261 168.334 212.21 122.19 199.846C76.0448 187.481 10.0234 129.697 22.3878 83.5526C34.7523 37.4078 120.82 20.3762 166.965 32.7407Z" fill="white"/>
<path d="M104.577 141.328L102.354 137.207H104.116L105.282 139.674L106.475 137.207H108.237L106.014 141.328V143.632H104.55V141.328H104.577Z" fill="#454258"/>
<path d="M110.243 143.767C109.809 143.767 109.402 143.686 109.077 143.496C108.725 143.306 108.481 143.062 108.264 142.737C108.047 142.412 107.966 142.06 107.966 141.653C107.966 141.246 108.074 140.867 108.264 140.569C108.454 140.243 108.725 139.999 109.077 139.81C109.429 139.62 109.809 139.539 110.243 139.539C110.676 139.539 111.056 139.62 111.408 139.81C111.733 139.999 112.005 140.243 112.194 140.569C112.384 140.894 112.465 141.246 112.465 141.653C112.465 142.06 112.384 142.439 112.194 142.737C112.005 143.035 111.733 143.306 111.408 143.496C111.083 143.686 110.676 143.767 110.243 143.767ZM110.243 142.547C110.405 142.547 110.568 142.52 110.676 142.439C110.812 142.358 110.893 142.249 110.974 142.114C111.056 141.978 111.083 141.816 111.083 141.653C111.083 141.49 111.056 141.328 110.974 141.192C110.893 141.057 110.812 140.948 110.676 140.867C110.541 140.785 110.405 140.758 110.243 140.758C110.08 140.758 109.917 140.785 109.809 140.867C109.673 140.948 109.592 141.057 109.511 141.192C109.429 141.328 109.402 141.49 109.402 141.653C109.402 141.816 109.429 141.978 109.511 142.114C109.592 142.249 109.673 142.358 109.809 142.439C109.917 142.493 110.08 142.547 110.243 142.547Z" fill="#454258"/>
<path d="M114.634 141.49C114.634 141.816 114.688 142.06 114.824 142.249C114.959 142.439 115.149 142.547 115.42 142.547C115.718 142.547 115.908 142.439 116.044 142.249C116.179 142.06 116.233 141.816 116.233 141.49V139.647H117.697V141.653C117.697 142.087 117.616 142.466 117.426 142.764C117.236 143.09 116.992 143.334 116.667 143.496C116.342 143.659 115.935 143.767 115.447 143.767C114.959 143.767 114.58 143.686 114.227 143.496C113.875 143.306 113.631 143.09 113.468 142.764C113.306 142.439 113.197 142.087 113.197 141.653V139.647H114.661V141.49H114.634Z" fill="#454258"/>
<path d="M119.784 138.481H118.239V137.207H122.766V138.481H121.221V143.632H119.784V138.481Z" fill="#454258"/>
<path d="M124.42 141.49C124.42 141.816 124.474 142.06 124.609 142.249C124.718 142.439 124.935 142.547 125.206 142.547C125.504 142.547 125.694 142.439 125.829 142.249C125.938 142.06 126.019 141.816 126.019 141.49V139.647H127.483V141.653C127.483 142.087 127.401 142.466 127.212 142.764C127.022 143.062 126.778 143.334 126.453 143.496C126.127 143.659 125.721 143.767 125.233 143.767C124.745 143.767 124.365 143.686 124.013 143.496C123.688 143.334 123.417 143.09 123.254 142.764C123.091 142.439 122.983 142.087 122.983 141.653V139.647H124.447V141.49H124.42Z" fill="#454258"/>
<path d="M128.35 143.659V136.936H129.841V140.216C129.868 140.135 129.949 140.026 130.058 139.918C130.193 139.81 130.329 139.728 130.546 139.647C130.736 139.566 130.979 139.539 131.223 139.539C131.603 139.539 131.955 139.647 132.226 139.837C132.497 140.026 132.741 140.298 132.877 140.596C133.04 140.921 133.121 141.273 133.121 141.653C133.121 142.032 133.04 142.412 132.877 142.71C132.714 143.008 132.497 143.279 132.226 143.469C131.955 143.659 131.603 143.767 131.223 143.767C131.007 143.767 130.817 143.74 130.627 143.659C130.437 143.578 130.275 143.496 130.139 143.361C130.004 143.252 129.895 143.117 129.841 143.008V143.659H128.35ZM131.684 141.653C131.684 141.463 131.657 141.301 131.576 141.165C131.495 141.029 131.386 140.894 131.251 140.813C131.115 140.731 130.952 140.677 130.79 140.677C130.6 140.677 130.437 140.731 130.302 140.813C130.166 140.894 130.058 141.002 129.977 141.165C129.895 141.301 129.841 141.463 129.841 141.653C129.841 141.843 129.895 142.005 129.977 142.141C130.058 142.276 130.166 142.412 130.302 142.493C130.437 142.575 130.6 142.629 130.79 142.629C130.952 142.629 131.115 142.575 131.251 142.493C131.386 142.412 131.495 142.303 131.576 142.141C131.657 141.978 131.684 141.816 131.684 141.653Z" fill="#454258"/>
<path d="M134.991 141.951C134.991 142.087 135.046 142.222 135.127 142.331C135.208 142.439 135.317 142.52 135.452 142.602C135.588 142.656 135.777 142.683 135.967 142.683C136.157 142.683 136.32 142.656 136.482 142.629C136.645 142.602 136.753 142.548 136.889 142.493C136.997 142.439 137.079 142.385 137.16 142.304L137.729 143.225C137.648 143.307 137.539 143.388 137.377 143.469C137.214 143.551 137.024 143.605 136.808 143.659C136.564 143.713 136.265 143.74 135.886 143.74C135.452 143.74 135.046 143.659 134.693 143.496C134.341 143.334 134.07 143.09 133.88 142.764C133.69 142.439 133.582 142.06 133.582 141.572C133.582 141.192 133.663 140.84 133.826 140.515C133.988 140.189 134.232 139.945 134.558 139.783C134.883 139.62 135.262 139.512 135.723 139.512C136.157 139.512 136.536 139.593 136.862 139.756C137.187 139.918 137.431 140.162 137.594 140.46C137.756 140.759 137.865 141.165 137.865 141.626C137.865 141.653 137.865 141.707 137.865 141.789C137.865 141.87 137.865 141.924 137.865 141.951H134.991ZM136.509 141.192C136.509 141.084 136.482 140.975 136.428 140.867C136.374 140.759 136.292 140.677 136.184 140.623C136.076 140.569 135.94 140.515 135.777 140.515C135.615 140.515 135.479 140.542 135.371 140.623C135.262 140.677 135.181 140.759 135.127 140.867C135.073 140.975 135.046 141.084 135.018 141.192H136.509Z" fill="#454258"/>
<path d="M147.515 127.639C147.515 127.639 127.13 128.208 120.326 128.208C113.523 128.208 93.138 127.639 93.138 127.639C87.8793 127.639 83.5692 123.329 83.5692 118.07C83.5692 118.07 83 106.089 83 102.104C83 98.0921 83.5692 86.1379 83.5692 86.1379C83.5692 80.8791 87.8793 76.5691 93.138 76.5691C93.138 76.5691 113.523 75.9999 120.326 75.9999C127.13 75.9999 147.515 76.5691 147.515 76.5691C152.774 76.5691 157.084 80.8791 157.084 86.1379C157.084 86.1379 157.653 98.1192 157.653 102.104C157.653 106.116 157.084 118.07 157.084 118.07C157.084 123.329 152.774 127.639 147.515 127.639Z" fill="#FF0000"/>
<path fill-rule="evenodd" clip-rule="evenodd" d="M113.17 113.76V90.4208L132.037 102.104L113.17 113.76Z" fill="white"/>
<path opacity="0.2" d="M119.242 154.291C135.979 154.291 149.548 153.077 149.548 151.58C149.548 150.083 135.979 148.869 119.242 148.869C102.505 148.869 88.9363 150.083 88.9363 151.58C88.9363 153.077 102.505 154.291 119.242 154.291Z" fill="url(#paint0_radial_1140_12946)"/>
<defs>
<radialGradient id="paint0_radial_1140_12946" cx="0" cy="0" r="1" gradientUnits="userSpaceOnUse" gradientTransform="translate(119.229 151.581) scale(21.5313 1.89529)">
<stop/>
<stop offset="1" stop-color="white"/>
</radialGradient>
</defs>
</svg>
